<svg width="47" height="17" viewBox="0 0 47 17" fill="none" xmlns="http://www.w3.org/2000/svg">
<path d="M1.62747 12.824L1.55547 10.664L11.7315 0.199999H13.7715L6.35547 7.976L5.34747 9.056L1.62747 12.824ZM0.0914689 17V0.199999H1.86747V17H0.0914689ZM12.1635 17L4.91547 8.648L6.11547 7.352L14.2755 17H12.1635ZM17.154 17V0.199999H24.402C26.274 0.199999 27.722 0.575999 28.746 1.328C29.786 2.08 30.306 3.144 30.306 4.52C30.306 5.432 30.09 6.2 29.658 6.824C29.242 7.448 28.666 7.92 27.93 8.24C27.21 8.56 26.418 8.72 25.554 8.72L25.962 8.144C27.034 8.144 27.954 8.312 28.722 8.648C29.506 8.968 30.114 9.456 30.546 10.112C30.978 10.752 31.194 11.552 31.194 12.512C31.194 13.936 30.666 15.04 29.61 15.824C28.57 16.608 26.994 17 24.882 17H17.154ZM18.93 15.536H24.858C26.33 15.536 27.458 15.288 28.242 14.792C29.026 14.28 29.418 13.472 29.418 12.368C29.418 11.28 29.026 10.488 28.242 9.992C27.458 9.48 26.33 9.224 24.858 9.224H18.738V7.76H24.282C25.626 7.76 26.666 7.504 27.402 6.992C28.154 6.48 28.53 5.72 28.53 4.712C28.53 3.688 28.154 2.928 27.402 2.432C26.666 1.92 25.626 1.664 24.282 1.664H18.93V15.536ZM35.2477 17V0.199999H37.0237V15.464H46.4317V17H35.2477Z" fill="white"/>
</svg>
